<?xml version="1.0" encoding="utf-8"?>
<!-- Generator: Adobe Illustrator 20.1.0, SVG Export Plug-In . SVG Version: 6.00 Build 0)  -->
<svg version="1.1" id="Layer_1" xmlns="http://www.w3.org/2000/svg" xmlns:xlink="http://www.w3.org/1999/xlink" x="0px" y="0px"
	 viewBox="0 0 162 214" style="enable-background:new 0 0 162 214;" xml:space="preserve">
<style type="text/css">
	.st0{fill:#333333;}
	.st1{fill:#FFFFFF;}
	.st2{fill:none;stroke:#FFFFFF;stroke-width:4;stroke-miterlimit:10;}
	.st3{fill:none;}
	.st4{fill:#D94039;}
	.st5{fill:#010101;}
</style>
<g>
	<g>
		<path class="st0" d="M74.7,77c6.9,0,12.2,2,15.7,6h26.1c-0.2-0.8-0.4-1.6-0.5-2.1c-2-5.6-4.9-10.6-8.2-14.4
			c-3.1-3.6-7.1-6.3-13.8-9.3C89.2,54.9,83.4,54,74.7,54H3h0.3v23H3H74.7z"/>
		<path class="st0" d="M74.7,141c7.6,0,14.3-2.6,19.3-4.9c5-2.3,9.6-5.8,13.8-10.5c3.6-4.1,6-7.7,7.6-11.6h-27
			c-3.2,2.7-7.4,4-13.7,4H3h0.3v23H3H74.7z"/>
		<path class="st0" d="M64.5,26c-6,2.8-10.4,5.8-13.6,9.6c-4.1,4.6-6.7,10.4-8.2,14.4h27.8c3.1-2.7,7.3-4,13.4-4h75.3V23H84
			C77.2,23,70.2,23.4,64.5,26z"/>
		<path class="st0" d="M68.3,81H42.6c0,0,0,0.1,0.1,0.1c1.7,4.8,4.4,9.1,8.2,13.5c4.4,5,9,8.6,13.7,10.8c6.7,3.1,13,4.6,19.4,4.6
			h75.3V87H84C77.2,87,71.9,85,68.3,81z"/>
		<path class="st0" d="M84,83c-2.5-1.3-5.5-2-9.2-2C77.3,82.3,80.3,83,84,83L84,83z"/>
		<path class="st0" d="M3.3,3v47H3h35.6c0.1-0.5,0.2-0.8,0.3-1.1c1.6-4.4,4.4-10.8,9-15.9c3.7-4.2,8.4-7.5,15-10.6
			C69.3,19.4,76.8,19,84,19h75.3V3H3H3.3z"/>
		<path class="st0" d="M80.7,50.2c5,0.3,10.2,1.2,14.9,3.3c5,2.3,10.7,5.3,15.1,10.3c3.7,4.2,6.8,9.6,9,15.7c0.3,0.8,0.5,1.9,0.8,3
			c0,0.2,0.1,0.3,0.1,0.5h38.7V50H84C82.8,50,81.7,50.1,80.7,50.2z"/>
		<path class="st0" d="M74.7,114c1.6,0,3-0.1,4.3-0.3c-5.3-0.6-10.6-2.1-16.1-4.7c-5.2-2.4-10.2-6.4-15-11.7
			c-4.2-4.8-7.1-9.5-9-14.8c-0.2-0.5-0.4-0.9-0.5-1.3c0-0.1,0-0.1-0.1-0.2H3h0.3v33H3H74.7z"/>
		<path class="st0" d="M110.8,128.2c-4.5,5.1-9.6,9-15.1,11.5c-5.4,2.4-12.6,5.2-21,5.2H3h0.3v14H3h156.3v-45h-39.7
			C117.8,119,115.1,123.2,110.8,128.2z"/>
		<path class="st1" d="M0.3,0v162h162V0H0.3z M3.3,54H3h71.6c8.7,0,14.5,0.9,19.3,3.1c6.6,3,10.6,5.7,13.8,9.3
			c3.4,3.8,6.2,8.8,8.2,14.4c0.2,0.5,0.4,1.3,0.5,2.1H90.4c-3.5-4-8.8-6-15.7-6H3h0.3V54z M84,83L84,83c-3.7,0-6.7-0.7-9.2-2
			C78.5,81,81.6,81.7,84,83z M3.3,81H3h35.3c0,0.1,0,0.1,0.1,0.2c0.2,0.4,0.4,0.8,0.5,1.3c1.9,5.3,4.8,10,9,14.8
			c4.7,5.4,9.8,9.3,15,11.7c5.5,2.5,10.8,4.1,16.1,4.7c-1.3,0.2-2.7,0.3-4.3,0.3H3h0.3V81z M3.3,118H3h71.6c6.3,0,10.5-1.3,13.7-4
			h27c-1.6,3.9-4,7.5-7.6,11.6c-4.1,4.7-8.8,8.2-13.8,10.5c-5,2.3-11.7,4.9-19.3,4.9H3h0.3V118z M159.3,159H3h0.3v-14H3h71.6
			c8.4,0,15.6-2.8,21-5.2c5.5-2.5,10.6-6.4,15.1-11.5c4.4-5,7.1-9.3,8.9-14.2h39.7V159z M159.3,110H84c-6.4,0-12.8-1.5-19.4-4.6
			c-4.7-2.2-9.3-5.8-13.7-10.8c-3.9-4.4-6.5-8.7-8.2-13.5c0,0,0-0.1-0.1-0.1h25.7c3.6,4,8.8,6,15.6,6h75.3V110z M159.3,83h-38.7
			c0-0.2-0.1-0.3-0.1-0.5c-0.2-1.1-0.5-2.2-0.8-3c-2.2-6.1-5.3-11.5-9-15.7c-4.4-5-10.1-8-15.1-10.3c-4.8-2.2-10-3-14.9-3.3
			c1-0.1,2.1-0.2,3.3-0.2h75.3V83z M159.3,46H84c-6.1,0-10.3,1.3-13.4,4H42.7c1.5-4.1,4.1-9.8,8.2-14.4c3.3-3.7,7.6-6.8,13.6-9.6
			c5.7-2.6,12.7-3,19.4-3h75.3V46z M159.3,19H84c-7.2,0-14.7,0.4-21.1,3.4c-6.6,3-11.3,6.4-15,10.6c-4.6,5.2-7.4,11.5-9,15.9
			c-0.1,0.3-0.2,0.7-0.3,1.1H3h0.3V3H3h156.3V19z"/>
	</g>
	<g>
		<path class="st0" d="M7,178.9c0.8-0.8,1.8-1.2,2.9-1.2s2.2,0.4,3,1.2c0.8,0.8,1.2,1.8,1.2,3s-0.4,2.2-1.2,2.9
			c-0.8,0.8-1.8,1.2-3,1.2s-2.2-0.4-2.9-1.2s-1.2-1.8-1.2-2.9S6.2,179.7,7,178.9z M13.2,213.5H6.7v-24.6h6.5V213.5z"/>
		<path class="st0" d="M29.3,189.5c1.3-0.8,2.9-1.2,4.7-1.2c2.9,0,5.1,0.9,6.5,2.6s2.2,4.2,2.2,7.3v15.2H36v-13.6
			c0-1.9-0.4-3.2-1.2-4.1c-0.8-0.8-1.9-1.3-3.3-1.3c-1.9,0-3.3,0.6-4.1,1.9c-0.8,1.3-1.3,3-1.3,5.2v11.7h-6.5v-24.6H26v3.5
			C26.8,191.2,27.9,190.2,29.3,189.5z"/>
		<path class="st0" d="M75.4,213.5c-0.9,0.1-1.8,0.2-2.6,0.2c-2.3,0-4.1-0.6-5.3-1.8s-1.9-3.2-1.9-6v-11.6h-4.5v-5.5h4.5v-6.6h6.5
			v6.6h6.2v5.5h-6.2V205c0,0.8,0.2,1.4,0.6,1.7c0.4,0.3,1,0.5,1.9,0.5c0.5,0,1,0,1.5-0.1c0.5,0,1.2-0.2,2.1-0.3v6.1
			C77.2,213.2,76.3,213.4,75.4,213.5z"/>
		<path class="st0" d="M82,195.9c0.7-1.6,1.6-2.9,2.8-4.1c1.2-1.1,2.6-2,4.2-2.6s3.4-0.9,5.3-0.9s3.7,0.3,5.3,0.9s3,1.5,4.2,2.6
			c1.2,1.1,2.1,2.5,2.8,4.1c0.7,1.6,1,3.3,1,5.2c0,1.9-0.3,3.7-1,5.3c-0.7,1.6-1.6,2.9-2.8,4.1s-2.6,2-4.2,2.6s-3.4,0.9-5.3,0.9
			s-3.7-0.3-5.3-0.9s-3-1.5-4.2-2.6s-2.1-2.5-2.8-4.1c-0.7-1.6-1-3.3-1-5.3C81,199.3,81.3,197.5,82,195.9z M100.2,198.5
			c-0.3-0.8-0.8-1.5-1.4-2.1c-0.6-0.6-1.3-1-2.1-1.3c-0.8-0.3-1.7-0.5-2.6-0.5s-1.8,0.2-2.6,0.5c-0.8,0.3-1.5,0.8-2.1,1.3
			c-0.6,0.6-1,1.3-1.4,2.1c-0.3,0.8-0.5,1.7-0.5,2.7s0.2,1.9,0.5,2.7c0.3,0.8,0.8,1.5,1.4,2.1c0.6,0.6,1.3,1,2.1,1.3
			c0.8,0.3,1.7,0.5,2.6,0.5s1.8-0.2,2.6-0.5c0.8-0.3,1.5-0.8,2.1-1.3c0.6-0.6,1-1.3,1.4-2.1c0.3-0.8,0.5-1.7,0.5-2.7
			S100.5,199.3,100.2,198.5z"/>
		<path class="st0" d="M124.1,213.5c-0.9,0.1-1.8,0.2-2.6,0.2c-2.3,0-4.1-0.6-5.3-1.8s-1.9-3.2-1.9-6v-11.6h-4.5v-5.5h4.5v-6.6h6.5
			v6.6h6.2v5.5h-6.2V205c0,0.8,0.2,1.4,0.6,1.7c0.4,0.3,1,0.5,1.9,0.5c0.5,0,1,0,1.5-0.1c0.5,0,1.2-0.2,2.1-0.3v6.1
			C125.9,213.2,125,213.4,124.1,213.5z"/>
		<path class="st0" d="M130.6,195.9c0.7-1.6,1.6-2.9,2.8-4.1c1.2-1.1,2.6-2,4.2-2.6s3.4-0.9,5.3-0.9s3.7,0.3,5.3,0.9s3,1.5,4.2,2.6
			c1.2,1.1,2.1,2.5,2.8,4.1c0.7,1.6,1,3.3,1,5.2c0,1.9-0.3,3.7-1,5.3c-0.7,1.6-1.6,2.9-2.8,4.1s-2.6,2-4.2,2.6s-3.4,0.9-5.3,0.9
			s-3.7-0.3-5.3-0.9s-3-1.5-4.2-2.6s-2.1-2.5-2.8-4.1c-0.7-1.6-1-3.3-1-5.3C129.6,199.3,130,197.5,130.6,195.9z M148.9,198.5
			c-0.3-0.8-0.8-1.5-1.4-2.1c-0.6-0.6-1.3-1-2.1-1.3c-0.8-0.3-1.7-0.5-2.6-0.5s-1.8,0.2-2.6,0.5c-0.8,0.3-1.5,0.8-2.1,1.3
			c-0.6,0.6-1,1.3-1.4,2.1c-0.3,0.8-0.5,1.7-0.5,2.7s0.2,1.9,0.5,2.7c0.3,0.8,0.8,1.5,1.4,2.1c0.6,0.6,1.3,1,2.1,1.3
			c0.8,0.3,1.7,0.5,2.6,0.5s1.8-0.2,2.6-0.5c0.8-0.3,1.5-0.8,2.1-1.3c0.6-0.6,1-1.3,1.4-2.1c0.3-0.8,0.5-1.7,0.5-2.7
			S149.2,199.3,148.9,198.5z"/>
	</g>
</g>
</svg>
