<?xml version="1.0" encoding="utf-8"?>
<!-- Generator: Adobe Illustrator 20.1.0, SVG Export Plug-In . SVG Version: 6.00 Build 0)  -->
<svg version="1.1" id="Layer_1" xmlns="http://www.w3.org/2000/svg" xmlns:xlink="http://www.w3.org/1999/xlink" x="0px" y="0px"
	 viewBox="0 0 162 214" style="enable-background:new 0 0 162 214;" xml:space="preserve">
<style type="text/css">
	.st0{fill:#333333;}
	.st1{fill:#FFFFFF;}
	.st2{fill:none;stroke:#FFFFFF;stroke-width:4;stroke-miterlimit:10;}
	.st3{fill:none;}
	.st4{fill:#D94039;}
	.st5{fill:#010101;}
</style>
<g>
	<rect id="XMLID_376_" x="3.2" y="3" class="st4" width="155.8" height="156"/>
	<path class="st1" d="M0.2,0v162h162V0H0.2z M159.2,3v16h-75C77,19,69.4,19.4,63,22.4c-6.6,3-11.3,6.4-15,10.6
		c-4.6,5.2-7.4,11.5-9,15.9c-0.1,0.3-0.2,0.7-0.3,1.1H3.2V3H159.2z M74.8,77H3.2V54h71.7c8.7,0,14.5,0.9,19.3,3.1
		c6.6,3,10.6,5.7,13.8,9.3c3.4,3.8,6.2,8.8,8.2,14.4c0.2,0.5,0.4,1.3,0.5,2.1H90.6C87,79,81.7,77,74.8,77z M84.2,83L84.2,83
		c-3.7,0-6.7-0.7-9.2-2C78.6,81,81.7,81.7,84.2,83z M38.4,81c0,0.1,0,0.1,0.1,0.2c0.2,0.4,0.4,0.8,0.5,1.3c1.9,5.3,4.8,10,9,14.8
		c4.7,5.4,9.8,9.3,15,11.7c5.5,2.5,10.8,4.1,16.1,4.7c-1.3,0.2-2.7,0.3-4.3,0.3H3.2V81H38.4z M74.8,118c6.3,0,10.5-1.3,13.7-4h27
		c-1.6,3.9-4,7.5-7.6,11.6c-4.1,4.7-8.8,8.2-13.8,10.5c-5,2.3-11.7,4.9-19.3,4.9H3.2v-23H74.8z M84.1,110c-6.4,0-12.8-1.5-19.4-4.6
		c-4.7-2.2-9.3-5.8-13.7-10.8c-3.9-4.4-6.5-8.7-8.2-13.5c0,0,0-0.1-0.1-0.1h25.7c3.6,4,8.8,6,15.6,6h75v23H84.1z M120.8,83
		c0-0.2-0.1-0.3-0.1-0.5c-0.2-1.1-0.5-2.2-0.8-3c-2.2-6.1-5.3-11.5-9-15.7c-4.4-5-10.1-8-15.1-10.3c-4.8-2.2-10-3-14.9-3.3
		c1-0.1,2.1-0.2,3.3-0.2h75v33H120.8z M84.1,46c-6.1,0-10.3,1.3-13.4,4H42.9c1.5-4.1,4.1-9.8,8.2-14.4c3.3-3.7,7.6-6.8,13.6-9.6
		c5.7-2.6,12.7-3,19.4-3h75v23H84.1z M3.2,159v-14h71.7c8.4,0,15.6-2.8,21-5.2c5.5-2.5,10.6-6.4,15.1-11.5c4.4-5,7.1-9.3,8.9-14.2
		h39.4v45H3.2z"/>
	<g>
		<path class="st4" d="M7.1,178.9c0.8-0.8,1.8-1.2,2.9-1.2s2.2,0.4,3,1.2c0.8,0.8,1.2,1.8,1.2,3s-0.4,2.2-1.2,2.9
			c-0.8,0.8-1.8,1.2-3,1.2s-2.2-0.4-2.9-1.2S6,183.1,6,181.9S6.3,179.7,7.1,178.9z M13.3,213.5H6.8v-24.6h6.5V213.5z"/>
		<path class="st4" d="M29.4,189.5c1.3-0.8,2.9-1.2,4.7-1.2c2.9,0,5.1,0.9,6.5,2.6s2.2,4.2,2.2,7.3v15.2h-6.6v-13.6
			c0-1.9-0.4-3.2-1.2-4.1c-0.8-0.8-1.9-1.3-3.3-1.3c-1.9,0-3.3,0.6-4.1,1.9c-0.8,1.3-1.3,3-1.3,5.2v11.7h-6.5v-24.6h6.3v3.5
			C27,191.2,28.1,190.2,29.4,189.5z"/>
		<path class="st4" d="M75.5,213.5c-0.9,0.1-1.8,0.2-2.6,0.2c-2.3,0-4.1-0.6-5.3-1.8s-1.9-3.2-1.9-6v-11.6h-4.5v-5.5h4.5v-6.6h6.5
			v6.6h6.2v5.5h-6.2V205c0,0.8,0.2,1.4,0.6,1.7c0.4,0.3,1,0.5,1.9,0.5c0.5,0,1,0,1.5-0.1c0.5,0,1.2-0.2,2.1-0.3v6.1
			C77.3,213.2,76.4,213.4,75.5,213.5z"/>
		<path class="st4" d="M82.1,195.9c0.7-1.6,1.6-2.9,2.8-4.1c1.2-1.1,2.6-2,4.2-2.6s3.4-0.9,5.3-0.9s3.7,0.3,5.3,0.9s3,1.5,4.2,2.6
			c1.2,1.1,2.1,2.5,2.8,4.1c0.7,1.6,1,3.3,1,5.2c0,1.9-0.3,3.7-1,5.3c-0.7,1.6-1.6,2.9-2.8,4.1s-2.6,2-4.2,2.6s-3.4,0.9-5.3,0.9
			s-3.7-0.3-5.3-0.9s-3-1.5-4.2-2.6s-2.1-2.5-2.8-4.1c-0.7-1.6-1-3.3-1-5.3C81.1,199.3,81.4,197.5,82.1,195.9z M100.4,198.5
			c-0.3-0.8-0.8-1.5-1.4-2.1c-0.6-0.6-1.3-1-2.1-1.3c-0.8-0.3-1.7-0.5-2.6-0.5s-1.8,0.2-2.6,0.5c-0.8,0.3-1.5,0.8-2.1,1.3
			c-0.6,0.6-1,1.3-1.4,2.1c-0.3,0.8-0.5,1.7-0.5,2.7s0.2,1.9,0.5,2.7c0.3,0.8,0.8,1.5,1.4,2.1c0.6,0.6,1.3,1,2.1,1.3
			c0.8,0.3,1.7,0.5,2.6,0.5s1.8-0.2,2.6-0.5c0.8-0.3,1.5-0.8,2.1-1.3c0.6-0.6,1-1.3,1.4-2.1c0.3-0.8,0.5-1.7,0.5-2.7
			S100.7,199.3,100.4,198.5z"/>
		<path class="st4" d="M124.2,213.5c-0.9,0.1-1.8,0.2-2.6,0.2c-2.3,0-4.1-0.6-5.3-1.8s-1.9-3.2-1.9-6v-11.6h-4.5v-5.5h4.5v-6.6h6.5
			v6.6h6.2v5.5h-6.2V205c0,0.8,0.2,1.4,0.6,1.7c0.4,0.3,1,0.5,1.9,0.5c0.5,0,1,0,1.5-0.1c0.5,0,1.2-0.2,2.1-0.3v6.1
			C126,213.2,125.1,213.4,124.2,213.5z"/>
		<path class="st4" d="M130.8,195.9c0.7-1.6,1.6-2.9,2.8-4.1c1.2-1.1,2.6-2,4.2-2.6s3.4-0.9,5.3-0.9s3.7,0.3,5.3,0.9s3,1.5,4.2,2.6
			c1.2,1.1,2.1,2.5,2.8,4.1c0.7,1.6,1,3.3,1,5.2c0,1.9-0.3,3.7-1,5.3c-0.7,1.6-1.6,2.9-2.8,4.1s-2.6,2-4.2,2.6s-3.4,0.9-5.3,0.9
			s-3.7-0.3-5.3-0.9s-3-1.5-4.2-2.6s-2.1-2.5-2.8-4.1c-0.7-1.6-1-3.3-1-5.3C129.8,199.3,130.1,197.5,130.8,195.9z M149,198.5
			c-0.3-0.8-0.8-1.5-1.4-2.1c-0.6-0.6-1.3-1-2.1-1.3c-0.8-0.3-1.7-0.5-2.6-0.5s-1.8,0.2-2.6,0.5c-0.8,0.3-1.5,0.8-2.1,1.3
			c-0.6,0.6-1,1.3-1.4,2.1c-0.3,0.8-0.5,1.7-0.5,2.7s0.2,1.9,0.5,2.7c0.3,0.8,0.8,1.5,1.4,2.1c0.6,0.6,1.3,1,2.1,1.3
			c0.8,0.3,1.7,0.5,2.6,0.5s1.8-0.2,2.6-0.5c0.8-0.3,1.5-0.8,2.1-1.3c0.6-0.6,1-1.3,1.4-2.1c0.3-0.8,0.5-1.7,0.5-2.7
			S149.4,199.3,149,198.5z"/>
	</g>
</g>
</svg>
